<svg xmlns="http://www.w3.org/2000/svg" viewBox="0 0 110.49 108.43" width="110.49" height="108.43">
  <defs>
    <style>
      .sketch-stroke { stroke: #121e26; stroke-width: 0.5; fill: none; }
      .main-stroke { stroke: #b7bcc1; stroke-width: 1; fill: none; }
      .text-fill { fill: #b7bcc1; font-family: Arial, Helvetica, sans-serif; font-size: 48px; font-weight: bold; }
    </style>
  </defs>

  <!-- Background texture/sketch -->
  <g stroke-linecap="round" transform="translate(10 10) rotate(0 45.25 44.22)">
    <path class="sketch-stroke" d="M8.43 3.35 C8.43 3.35, 8.43 3.35, 8.43 3.35 M0.95 18.05 C6.93 11.41, 10.44 6.72, 15.38 1.45 M0.03 25.2 C5.54 19.07, 10.04 14.72, 21.68 0.3 M-0.23 31.6 C5.76 22.77, 14.27 14.29, 26.67 0.66 M0.16 37.24 C7.37 26.33, 15.5 16.97, 32.31 0.26 M-0.1 43.64 C7.72 35.23, 16.34 24.37, 37.3 0.62 M0.3 49.28 C15.51 34.4, 26.88 21.02, 42.28 0.98 M0.04 55.68 C13.01 42.73, 26.06 25.97, 47.93 0.59 M-0.23 62.08 C14.83 41.33, 32.32 23.25, 52.91 0.95 M0.17 67.72 C16.96 51.33, 33.04 33.06, 58.56 0.55 M1.22 72.61 C22.41 48.48, 46.47 20.28, 63.55 0.91 M2.27 77.5 C17.37 58.86, 37.52 38.09, 69.19 0.52 M4.63 80.88 C29.22 50.43, 56.74 23.97, 74.18 0.88 M7 84.26 C23.43 65.95, 39.29 48.88, 78.51 1.99 M10.67 86.13 C28.25 62.4, 47.86 40.42, 82.18 3.86 M15 87.24 C37.09 64, 54.87 41.79, 85.2 6.49 M18.68 89.11 C33.98 70.98, 47.83 54.14, 88.22 9.11 M24.32 88.72 C45.67 65.13, 70.75 36.38, 89.27 14 M29.31 89.08 C46.71 68.61, 66.74 48.02, 90.32 18.89 M34.95 88.68 C52.44 71.42, 68.35 50.89, 91.37 23.78 M39.94 89.04 C56.58 71.53, 71.98 52.42, 91.11 30.17 M45.58 88.65 C58.64 76.01, 71.58 59.16, 90.85 36.57 M50.57 89.01 C64.03 69.85, 80.36 53.19, 91.24 42.22 M55.55 89.37 C65.75 74.03, 80.26 63.39, 90.98 48.61 M61.2 88.97 C69.11 78.51, 77.57 70.12, 90.72 55.01 M66.18 89.33 C76.59 77.77, 84.58 66.45, 91.11 60.65 M72.48 88.18 C80.84 79.83, 87.13 70.46, 90.85 67.05 M78.78 87.03 C82.98 82.18, 84.93 80.05, 89.94 74.2"/>

    <!-- Main rounded rectangle -->
    <path class="main-stroke" d="M22.11 0 C41.32 1.62, 57.35 -2.07, 68.39 0 M68.39 0 C84.45 -0.84, 90.84 5.49, 90.49 22.11 M90.49 22.11 C92.02 32.23, 89.37 42.12, 90.49 66.32 M90.49 66.32 C89.71 80.23, 82.93 86.96, 68.39 88.43 M68.39 88.43 C52.03 88.27, 38.63 86.82, 22.11 88.43 M22.11 88.43 C8.6 88.92, -0.9 82.85, 0 66.32 M0 66.32 C-2.34 53.39, -0.12 37.74, 0 22.11 M0 22.11 C1.91 7.51, 7.56 -1.74, 22.11 0"/>
  </g>

  <!-- "ID" text -->
  <text x="55.25" y="63.43" class="text-fill" text-anchor="middle" dominant-baseline="middle">ID</text>
</svg>
